<svg width="367" height="233" viewBox="0 0 367 233" fill="none" xmlns="http://www.w3.org/2000/svg">
<path d="M99.4208 47.0487C98.3053 44.7647 98.7834 41.7901 100.589 39.9842C102.342 38.1782 105.264 37.5939 107.601 38.6031C107.548 33.4508 111.213 29.0422 115.356 25.9614C117.48 24.3679 119.871 22.9869 122.526 22.7213C125.979 22.3495 129.485 23.943 132.034 26.2801C134.637 28.6173 136.443 31.6449 138.143 34.7256C139.205 32.9197 141.701 32.1761 143.561 33.1321C145.42 34.0882 146.376 36.4785 145.579 38.4438C149.669 37.7533 153.971 41.259 154.184 45.4021" fill="#C3E9D0"/>
<path d="M234.018 24.1554C234.92 22.2432 234.549 19.7467 233.061 18.2595C231.574 16.7191 229.131 16.2411 227.165 17.0909C227.219 12.7885 224.138 9.07034 220.685 6.52075C218.879 5.19284 216.914 4.02427 214.683 3.81181C211.762 3.49311 208.893 4.82102 206.716 6.78633C204.538 8.75164 202.998 11.3012 201.563 13.8508C200.66 12.3636 198.589 11.7262 196.995 12.5229C195.455 13.3197 194.658 15.3381 195.296 16.9316C191.843 16.3473 188.231 19.2687 188.072 22.7744" fill="#C3E9D0"/>
<path d="M62.8763 77.5375C63.6199 75.9971 63.3012 74.0849 62.1327 72.8632C60.9641 71.6416 58.9988 71.2697 57.4584 71.9603C57.5115 68.5608 55.0682 65.6394 52.3592 63.621C50.9251 62.5586 49.3847 61.6557 47.6319 61.4432C45.3479 61.1776 43.0639 62.2399 41.311 63.7803C39.6113 65.3207 38.3896 67.3391 37.2742 69.3575C36.5837 68.189 34.8839 67.7109 33.6622 68.2952C32.4406 68.8795 31.8032 70.5261 32.3343 71.8009C29.6254 71.3229 26.7571 73.66 26.6509 76.422" fill="#C3E9D0"/>
<path d="M305.566 77.5375C306.309 75.9971 305.991 74.0849 304.822 72.8632C303.654 71.6416 301.688 71.2697 300.148 71.9603C300.201 68.5608 297.758 65.6394 295.049 63.621C293.615 62.5586 292.074 61.6557 290.321 61.4432C288.037 61.1776 285.753 62.2399 284 63.7803C282.301 65.3207 281.079 67.3391 279.964 69.3575C279.273 68.189 277.573 67.7109 276.352 68.2952C275.13 68.8795 274.493 70.5261 275.024 71.8009C272.315 71.3229 269.447 73.66 269.34 76.422" fill="#C3E9D0"/>
<path d="M266.366 94.3753C266.366 92.9942 265.251 91.8788 263.87 91.8788C262.488 91.8788 261.373 92.9942 261.373 94.3753C261.373 95.7563 262.488 96.8717 263.87 96.8717C265.304 96.8186 266.366 95.7032 266.366 94.3753Z" fill="#C3E9D0"/>
<path d="M128.953 72.4383C128.953 71.2697 127.997 70.3136 126.829 70.3136C125.66 70.3136 124.704 71.2697 124.704 72.4383C124.704 73.6068 125.66 74.5629 126.829 74.5629C127.997 74.5629 128.953 73.6068 128.953 72.4383Z" fill="#C3E9D0"/>
<path d="M144.144 49.4919C144.144 48.1109 143.029 46.9954 141.648 46.9954C140.267 46.9954 139.151 48.1109 139.151 49.4919C139.151 50.8729 140.267 51.9884 141.648 51.9884C143.029 51.9884 144.144 50.8729 144.144 49.4919Z" fill="#C3E9D0"/>
<path d="M134.265 45.2426C134.265 44.8708 133.946 44.5521 133.574 44.5521C133.202 44.5521 132.884 44.8708 132.884 45.2426C132.884 45.6144 133.202 45.9331 133.574 45.9331C133.946 45.9331 134.265 45.6144 134.265 45.2426Z" fill="white"/>
<path d="M211.656 53.6881C212.624 53.6881 213.409 52.9033 213.409 51.9352C213.409 50.9671 212.624 50.1824 211.656 50.1824C210.688 50.1824 209.903 50.9671 209.903 51.9352C209.903 52.9033 210.688 53.6881 211.656 53.6881Z" fill="#C3E9D0"/>
<path d="M326.812 183.717C326.812 182.336 325.696 181.221 324.315 181.221C322.934 181.221 321.819 182.336 321.819 183.717C321.819 185.098 322.934 186.214 324.315 186.214C325.696 186.214 326.812 185.098 326.812 183.717Z" fill="#C3E9D0"/>
<path d="M65.3727 130.016C65.3727 129.22 64.7353 128.582 63.9385 128.582C63.1418 128.582 62.5044 129.22 62.5044 130.016C62.5044 130.813 63.1418 131.451 63.9385 131.451C64.7353 131.451 65.3727 130.813 65.3727 130.016Z" fill="#C3E9D0"/>
<path d="M63.248 98.2528C63.248 96.2875 61.6545 94.694 59.6892 94.694C57.7239 94.694 56.1304 96.2875 56.1304 98.2528C56.1304 100.218 57.7239 101.812 59.6892 101.812C61.6545 101.759 63.248 100.165 63.248 98.2528Z" fill="#C3E9D0"/>
<g opacity="0.68">
<path d="M3.81114 229.663C-0.0132422 225.361 0.0398755 212.878 3.06751 207.992C6.09515 203.105 12.4691 200.555 18.0464 202.043C15.4436 191.897 17.5683 181.115 20.7553 171.076C23.0924 163.639 26.1201 156.203 31.4317 150.52C39.5585 141.702 52.3065 138.143 64.2577 139.1C76.2089 140.056 87.5227 144.995 97.8273 151.157C104.679 124.599 112.328 96.5532 132.141 77.5375C157.424 53.3164 199.492 50.5012 229.344 68.7733C259.195 87.0454 275.821 123.59 272.899 158.487C283.841 157.372 295.58 159.071 304.291 165.764C313.002 172.457 317.729 185.045 313.108 195.031C335.895 189.826 361.338 206.132 366.065 229.026" fill="#9BDBB3"/>
</g>
<g opacity="0.24">
<path opacity="0.24" d="M3.81163 229.663C-0.0127539 226.104 0.0403638 215.906 3.068 211.869C6.09564 207.885 12.4696 205.761 18.0468 206.982C15.4441 198.643 17.5688 189.773 20.7558 181.593C23.0929 175.484 26.1205 169.429 31.4322 164.702C39.559 157.478 52.307 154.556 64.2582 155.3C76.2094 156.044 87.5232 160.134 97.8278 165.18C104.68 143.402 112.329 120.402 132.141 104.786C157.424 84.9206 199.493 82.6366 229.344 97.5623C259.196 112.488 275.821 142.552 272.9 171.129C283.842 170.226 295.58 171.607 304.291 177.078C313.003 182.549 317.73 192.906 313.109 201.086C335.896 196.784 361.339 210.222 366.066 228.972" fill="#9BDBB3"/>
</g>
<g opacity="0.28">
<g opacity="0.28">
<g opacity="0.28">
<g opacity="0.28">
<path opacity="0.28" d="M144.039 172.032C141.967 176.228 139.789 180.371 137.612 184.514C135.115 189.188 132.565 193.863 129.91 198.484C133.628 208.417 136.602 218.668 138.833 229.079L163.904 229.026C163.851 229.026 156.202 201.352 144.039 172.032Z" fill="#4F6AFF"/>
<path opacity="0.28" d="M126.881 190.941C127.678 192.801 128.422 194.66 129.165 196.572C134.052 188.02 138.673 179.309 143.082 170.492C143.135 170.385 143.241 170.279 143.294 170.226C142.604 168.633 141.966 167.039 141.223 165.446C136.177 173.732 131.449 182.23 126.988 190.888C126.934 190.835 126.934 190.888 126.881 190.941Z" fill="#4F6AFF"/>
<path opacity="0.28" d="M98.5703 200.927C101.067 205.495 103.616 210.01 105.635 214.844C107.388 219.04 108.981 223.608 108.928 228.229C111.69 224.405 114.346 220.527 116.895 216.597C120.826 210.594 124.544 204.539 128.103 198.324C122.898 184.514 116.205 171.288 108.291 158.806C103.51 151.316 98.2516 144.146 92.5682 137.294C92.515 137.294 92.515 137.294 92.4619 137.294C88.6375 137.719 84.8132 138.197 81.0419 138.834C78.0674 139.312 75.0928 139.896 72.1183 140.481C72.9151 143.136 74.0305 145.58 75.5178 147.758C85.7693 162.736 71.6934 157.159 63.6728 161.143C63.1948 161.409 62.6636 161.727 62.1855 162.099C68.1877 164.489 73.1807 168.526 77.7487 172.988C86.088 181.274 92.94 190.676 98.5703 200.927Z" fill="#4F6AFF"/>
<path opacity="0.28" d="M131.715 208.629C130.812 205.814 129.856 203.052 128.847 200.237C123.057 210.116 116.896 219.837 110.203 229.132L137.186 229.079C135.699 222.174 133.893 215.375 131.715 208.629Z" fill="#4F6AFF"/>
<path opacity="0.28" d="M91.3469 135.86C85.7165 129.22 79.6613 122.899 73.181 116.95C70.419 123.59 69.9409 131.823 71.6938 138.94C78.174 137.612 84.7604 136.603 91.3469 135.86Z" fill="#4F6AFF"/>
<path opacity="0.28" d="M85.504 105.105C85.2384 107.389 87.2568 109.779 89.7002 109.461C91.878 109.142 93.3121 106.645 92.7278 104.574C92.7278 104.521 92.6747 104.415 92.6747 104.361C90.072 104.043 87.6818 104.255 85.504 104.893C85.504 104.946 85.504 105.052 85.504 105.105Z" fill="#4F6AFF"/>
<path opacity="0.28" d="M103.192 213.25C101.12 208.788 98.6768 204.486 96.2866 200.13C93.5245 195.084 90.3375 190.304 86.8319 185.736C83.3793 181.221 79.5549 177.025 75.4649 173.094C71.375 169.216 66.8601 165.658 61.5484 163.586C61.2828 163.48 61.1235 163.267 61.0173 163.002C55.3869 168.26 50.6064 180.955 63.62 191.897C78.5988 204.539 75.4649 206.079 73.0747 215.534C70.6845 224.989 74.4557 229.132 74.4557 229.132L107.229 229.079C107.6 223.661 105.476 218.19 103.192 213.25Z" fill="#4F6AFF"/>
<path opacity="0.28" d="M73.9245 115.463C81.5733 122.474 88.744 130.017 95.2773 138.09C106.963 152.485 116.789 168.367 124.438 185.258C125.023 186.479 125.554 187.754 126.085 189.029C130.44 180.69 135.008 172.51 139.895 164.489C140.054 164.17 140.373 164.064 140.639 164.117C128.156 135.806 111.797 108.239 94.3212 104.68C94.8524 107.548 92.834 110.629 89.8594 111.054C86.6724 111.532 83.6979 108.611 83.8573 105.477C79.3955 107.23 76.1023 110.895 73.9245 115.463C73.8714 115.41 73.9245 115.463 73.9245 115.463Z" fill="#4F6AFF"/>
</g>
<g opacity="0.28">
<path opacity="0.28" d="M121.836 229.557C121.836 229.557 110.575 212.56 98.4645 197.421C95.0651 201.511 91.7718 205.708 88.5848 210.01L88.5317 210.063C93.5778 216.012 98.4114 222.174 102.873 228.548C103.033 228.76 102.979 228.973 102.82 229.132L121.836 229.557Z" fill="white"/>
<path opacity="0.28" d="M87.8944 209.266C91.0814 204.964 94.4278 200.768 97.8272 196.625C96.0212 194.394 94.1622 192.163 92.3562 190.091C89.541 195.35 86.9383 200.715 85.3979 206.504C86.3009 207.407 87.0977 208.31 87.8944 209.266Z" fill="white"/>
<path opacity="0.28" d="M102.023 229.079C100.164 226.423 98.2522 223.767 96.2337 221.218C95.6495 220.474 95.0652 219.73 94.4809 218.934C94.4278 218.934 94.4278 218.934 94.3747 218.934C86.6197 218.934 78.7584 218.774 71.0565 220.261C70.4191 220.368 70.1536 219.412 70.791 219.305C78.3335 217.871 86.0354 217.924 93.6842 217.924C88.1069 210.86 82.1579 204.114 75.837 197.74C75.7308 198.484 75.4121 199.121 74.7216 199.493C68.7194 202.999 68.1883 190.463 57.6712 195.509C47.1541 200.502 78.2273 228.601 78.2273 228.601L102.023 229.079Z" fill="white"/>
<path opacity="0.28" d="M81.0953 201.671C82.317 202.945 83.4856 204.22 84.6541 205.548C86.2476 199.812 88.8503 194.447 91.6655 189.241C83.7512 180.212 76.3149 173.519 72.2249 174.422C62.8233 176.493 74.4558 189.56 75.7837 196.2C77.5897 198.006 79.3425 199.812 81.0953 201.671Z" fill="white"/>
</g>
</g>
</g>
</g>
<g opacity="0.28">
<g opacity="0.28">
<g opacity="0.28">
<g opacity="0.28">
<path opacity="0.28" d="M215.108 172.032C217.179 176.228 219.357 180.371 221.535 184.514C224.031 189.189 226.581 193.863 229.237 198.484C225.519 208.417 222.544 218.668 220.313 229.079L195.242 229.026C195.295 229.026 202.944 201.352 215.108 172.032Z" fill="#4F6AFF"/>
<path opacity="0.28" d="M232.211 190.941C231.415 192.801 230.671 194.66 229.927 196.572C225.041 188.02 220.419 179.309 216.011 170.492C215.958 170.385 215.851 170.279 215.798 170.226C216.489 168.633 217.126 167.039 217.87 165.446C222.916 173.732 227.643 182.23 232.105 190.888C232.158 190.835 232.211 190.888 232.211 190.941Z" fill="#4F6AFF"/>
<path opacity="0.28" d="M260.576 200.927C258.079 205.495 255.53 210.01 253.511 214.844C251.758 219.04 250.165 223.608 250.218 228.229C247.456 224.405 244.8 220.527 242.251 216.597C238.32 210.594 234.602 204.539 231.043 198.325C236.248 184.514 242.941 171.288 250.855 158.806C255.636 151.317 260.894 144.146 266.578 137.294C266.631 137.294 266.631 137.294 266.684 137.294C270.508 137.719 274.333 138.197 278.104 138.834C281.079 139.312 284.053 139.896 287.028 140.481C286.231 143.137 285.116 145.58 283.628 147.758C273.377 162.737 287.453 157.159 295.473 161.143C295.951 161.409 296.482 161.727 296.96 162.099C290.958 164.489 285.965 168.526 281.397 172.988C273.058 181.274 266.206 190.676 260.576 200.927Z" fill="#4F6AFF"/>
<path opacity="0.28" d="M227.378 208.629C228.281 205.814 229.237 203.052 230.246 200.237C236.036 210.116 242.197 219.837 248.89 229.132L221.907 229.079C223.447 222.174 225.253 215.375 227.378 208.629Z" fill="#4F6AFF"/>
<path opacity="0.28" d="M267.799 135.86C273.43 129.22 279.485 122.899 285.965 116.95C288.727 123.59 289.205 131.823 287.452 138.94C280.919 137.612 274.386 136.603 267.799 135.86Z" fill="#4F6AFF"/>
<path opacity="0.28" d="M273.642 105.105C273.908 107.389 271.889 109.779 269.446 109.461C267.268 109.142 265.834 106.645 266.418 104.574C266.418 104.521 266.471 104.415 266.471 104.361C269.074 104.043 271.464 104.255 273.642 104.893C273.642 104.946 273.642 105.052 273.642 105.105Z" fill="#4F6AFF"/>
<path opacity="0.28" d="M255.901 213.25C257.973 208.789 260.416 204.486 262.806 200.131C265.568 195.085 268.755 190.304 272.261 185.736C275.714 181.221 279.538 177.025 283.628 173.094C287.718 169.217 292.233 165.658 297.545 163.586C297.81 163.48 297.969 163.268 298.076 163.002C303.706 168.261 308.487 180.956 295.473 191.898C280.494 204.539 283.628 206.08 286.018 215.534C288.408 224.989 284.637 229.132 284.637 229.132L251.864 229.079C251.546 223.661 253.67 218.19 255.901 213.25Z" fill="#4F6AFF"/>
<path opacity="0.28" d="M285.222 115.463C277.573 122.474 270.402 130.017 263.869 138.09C252.183 152.485 242.357 168.367 234.708 185.258C234.124 186.48 233.592 187.754 233.061 189.029C228.706 180.69 224.138 172.51 219.251 164.489C219.092 164.171 218.773 164.064 218.507 164.118C230.99 135.806 247.35 108.239 264.825 104.68C264.294 107.549 266.312 110.629 269.287 111.054C272.474 111.532 275.448 108.611 275.289 105.477C279.698 107.23 283.044 110.895 285.222 115.463C285.222 115.41 285.222 115.463 285.222 115.463Z" fill="#4F6AFF"/>
</g>
<g opacity="0.28">
<path opacity="0.28" d="M237.258 229.557C237.258 229.557 248.519 212.56 260.629 197.422C264.029 201.512 267.322 205.708 270.509 210.01L270.562 210.063C265.516 216.012 260.682 222.174 256.22 228.548C256.061 228.76 256.114 228.973 256.274 229.132L237.258 229.557Z" fill="white"/>
<path opacity="0.28" d="M271.253 209.267C268.066 204.964 264.719 200.768 261.32 196.625C263.126 194.394 264.985 192.163 266.791 190.092C269.606 195.35 272.209 200.715 273.749 206.505C272.846 207.408 272.049 208.31 271.253 209.267Z" fill="white"/>
<path opacity="0.28" d="M257.124 229.079C258.983 226.423 260.895 223.767 262.913 221.218C263.498 220.474 264.082 219.73 264.666 218.934C264.719 218.934 264.719 218.934 264.773 218.934C272.528 218.934 280.389 218.774 288.091 220.262C288.728 220.368 288.994 219.412 288.356 219.306C280.814 217.871 273.112 217.924 265.463 217.924C271.04 210.86 276.989 204.114 283.31 197.74C283.416 198.484 283.735 199.121 284.426 199.493C290.428 202.999 290.959 190.463 301.476 195.509C311.993 200.502 280.92 228.601 280.92 228.601L257.124 229.079C257.071 229.079 257.071 229.079 257.124 229.079Z" fill="white"/>
<path opacity="0.28" d="M283.363 196.2C284.638 189.56 296.323 176.494 286.922 174.422C282.832 173.519 275.395 180.212 267.481 189.242C270.296 194.447 272.952 199.812 274.492 205.548C275.661 204.22 276.829 202.946 278.051 201.671C279.751 199.812 281.557 198.006 283.363 196.2Z" fill="white"/>
</g>
</g>
</g>
</g>
<g opacity="0.61">
<path opacity="0.61" d="M26.9697 229.663C28.457 222.014 39.7708 214.365 47.3664 216.171C49.5442 207.46 61.4423 202.945 68.8786 207.992C71.322 198.696 74.2965 188.604 82.3702 183.399C91.5062 177.45 104.254 180.371 112.7 187.276C121.145 194.181 126.244 204.273 131.131 213.994C131.928 211.55 135.38 210.913 137.611 212.188C139.842 213.463 141.117 215.906 142.232 218.243C154.502 212.188 163.213 199.493 164.488 185.842L187.275 181.008C189.453 190.41 191.949 200.343 198.908 207.035C205.866 213.728 218.879 214.897 224.297 206.929C225.519 205.176 226.369 202.945 228.281 202.042C232.052 200.237 235.717 204.698 237.576 208.47C240.923 201.883 251.546 200.821 256.167 206.557C259.992 193.438 274.014 184.195 287.612 185.789C301.157 187.382 312.63 199.705 313.267 213.356C322.244 209.904 337.276 219.73 339.932 228.973" fill="white"/>
</g>
<g opacity="0.79">
<path opacity="0.79" d="M166.028 191.472C165.179 193.331 164.7 195.35 164.541 197.421C164.541 197.74 164.488 198.059 164.594 198.324C164.86 199.015 165.763 199.227 166.453 199.015C167.144 198.802 167.675 198.218 168.153 197.687C168.525 204.645 171.871 211.444 177.13 216.012C177.395 216.225 177.714 216.49 178.033 216.437C178.298 216.384 178.564 216.225 178.776 216.012C183.769 211.072 186.478 203.902 185.894 196.89C187.116 197.687 188.868 196.359 188.975 194.872C189.081 193.384 188.178 192.057 187.381 190.835" fill="white"/>
</g>
<path d="M193.649 179.362V168.207H161.195V179.362V179.309C156.946 182.071 154.874 186.904 154.874 192.322H199.917C199.97 186.851 197.898 182.124 193.649 179.362Z" fill="#4F6AFF"/>
<path d="M171.818 170.863C178.936 173.784 193.702 179.309 193.702 179.309V168.154H165.285C167.41 169.11 169.641 169.96 171.818 170.863Z" fill="#3054F2"/>
<path d="M206.981 126.511L219.251 140.852C222.226 144.358 223.607 148.926 223.023 153.494L219.676 179.415C219.464 181.221 217.711 182.495 215.905 182.177C214.311 181.911 213.143 180.477 213.249 178.83L213.887 167.145C214.258 159.974 209.319 153.547 202.307 152.113L206.981 126.511Z" fill="#27AE60"/>
<path d="M148.66 126.511L136.39 140.852C133.415 144.358 132.034 148.926 132.618 153.494L135.965 179.415C136.177 181.221 137.93 182.496 139.736 182.177C141.329 181.911 142.498 180.477 142.392 178.831L141.754 167.145C141.383 159.974 146.322 153.547 153.334 152.113L148.66 126.511Z" fill="#27AE60"/>
<path d="M214.843 135.7L206.981 126.511L202.307 152.113C203.688 152.378 205.016 152.857 206.185 153.494C208.947 147.545 211.815 141.543 214.843 135.7Z" fill="#118D45"/>
<path d="M142.126 142.924C144.782 146.376 147.544 149.776 150.253 153.175C151.262 152.697 152.271 152.379 153.387 152.113L148.713 126.511L138.833 138.09C140.002 139.79 141.117 141.596 142.126 142.924Z" fill="#118D45"/>
<path d="M154.715 164.383C154.715 164.383 147.119 144.889 147.491 124.386C147.863 103.883 142.817 58.3624 157.212 28.7765C165.816 11.1418 171.234 3.91801 174.156 0.943489C175.484 -0.384423 177.714 -0.225072 178.83 1.26219C183.345 7.31746 195.03 23.3055 197.952 30.2107C201.564 38.8686 209.85 55.441 206.982 126.458C206.982 126.458 205.548 152.803 200.501 164.33H154.715V164.383Z" fill="white"/>
<path opacity="0.37" d="M155.14 52.201C157.264 38.072 160.664 23.465 169.162 11.6731C169.534 11.1951 169.959 10.8233 170.384 10.5577C172.562 7.05198 174.74 3.59941 176.917 0.0937283C175.961 -0.065621 174.952 0.19996 174.155 0.943591C171.181 3.91811 165.816 11.142 157.211 28.7766C142.764 58.3625 147.863 103.777 147.491 124.333C147.119 144.889 154.715 164.33 154.715 164.33L200.873 164.117C155.936 163.692 152.271 123.324 151.687 101.015C151.262 84.7082 152.749 68.2953 155.14 52.201Z" fill="#95A1E6"/>
<path d="M192.162 29.2014C194.127 29.5201 196.039 29.892 198.004 30.2638C195.136 23.3055 183.45 7.37058 178.882 1.3153C177.767 -0.225078 175.536 -0.384427 174.208 0.996601C171.234 3.97112 165.869 11.195 157.264 28.8296C157.105 29.2014 156.892 29.5733 156.733 29.9982C168.206 27.0768 180.423 27.3424 192.162 29.2014Z" fill="#27AE60"/>
<path d="M169.481 15.8161C172.88 11.3012 176.067 6.62696 179.467 2.11206C179.254 1.79336 179.042 1.52778 178.829 1.2622C177.714 -0.278177 175.483 -0.437528 174.155 0.9435C171.18 3.91802 165.816 11.1419 157.211 28.7765C157.052 29.1483 156.839 29.5202 156.68 29.9451C158.326 29.5202 159.973 29.2015 161.62 28.9359C163.425 24.1554 166.4 19.9061 169.481 15.8161Z" fill="#118D46"/>
<path d="M198.908 170.279H156.627C154.715 170.279 153.175 168.738 153.175 166.826C153.175 164.914 154.715 163.374 156.627 163.374H198.908C200.82 163.374 202.361 164.914 202.361 166.826C202.361 168.738 200.82 170.279 198.908 170.279Z" fill="#4F6AFF"/>
<path d="M176.811 44.9772C166.772 44.9772 158.646 53.104 158.646 63.143C158.646 73.182 166.772 81.3088 176.811 81.3088C186.85 81.3088 194.977 73.182 194.977 63.143C194.977 53.1571 186.85 44.9772 176.811 44.9772ZM176.811 76.0503C169.694 76.0503 163.904 70.2606 163.904 63.143C163.904 56.0254 169.694 50.2357 176.811 50.2357C183.929 50.2357 189.719 56.0254 189.719 63.143C189.666 70.3137 183.929 76.0503 176.811 76.0503Z" fill="#38342E"/>
<path opacity="0.37" d="M179.703 75.7743C186.649 74.1732 190.982 67.2445 189.381 60.2984C187.78 53.3524 180.851 49.0195 173.905 50.6206C166.959 52.2216 162.627 59.1504 164.228 66.0964C165.829 73.0424 172.757 77.3754 179.703 75.7743Z" fill="#95A1E6"/>
<g opacity="0.6">
<path opacity="0.6" d="M163.957 64.099C164.435 70.7917 169.959 76.1033 176.811 76.1033C177.874 76.1033 178.883 75.944 179.892 75.7315C174.527 71.9071 169.216 68.0296 163.957 64.099Z" fill="#FCFAF5"/>
<path opacity="0.6" d="M186.638 71.4823C188.55 69.2514 189.665 66.33 189.665 63.1961C189.665 56.0785 183.876 50.2888 176.758 50.2888C172.137 50.2888 168.1 52.7322 165.816 56.3441C172.721 61.4964 179.626 66.5425 186.638 71.4823Z" fill="#FCFAF5"/>
</g>
<path d="M178.033 47.686C178.033 46.9955 177.502 46.4644 176.812 46.4644C176.121 46.4644 175.59 46.9955 175.59 47.686C175.59 48.3765 176.121 48.9077 176.812 48.9077C177.502 48.9077 178.033 48.3765 178.033 47.686Z" stroke="white" stroke-width="0.3478" stroke-miterlimit="10"/>
<path d="M178.033 78.6529C178.033 77.9624 177.502 77.4313 176.812 77.4313C176.121 77.4313 175.59 77.9624 175.59 78.6529C175.59 79.3435 176.121 79.8746 176.812 79.8746C177.502 79.8746 178.033 79.3435 178.033 78.6529Z" stroke="white" stroke-width="0.3478" stroke-miterlimit="10"/>
<path d="M188.603 53.1039C189.081 52.6258 189.081 51.8291 188.603 51.351C188.125 50.873 187.328 50.873 186.85 51.351C186.372 51.8291 186.372 52.6258 186.85 53.1039C187.381 53.5819 188.125 53.5819 188.603 53.1039Z" stroke="white" stroke-width="0.3478" stroke-miterlimit="10"/>
<path d="M165.869 75.3598C166.544 75.3598 167.091 74.8128 167.091 74.1381C167.091 73.4634 166.544 72.9164 165.869 72.9164C165.194 72.9164 164.647 73.4634 164.647 74.1381C164.647 74.8128 165.194 75.3598 165.869 75.3598Z" stroke="white" stroke-width="0.3478" stroke-miterlimit="10"/>
<path d="M192.269 64.4178C192.959 64.4178 193.49 63.8866 193.49 63.1961C193.49 62.5056 192.959 61.9744 192.269 61.9744C191.578 61.9744 191.047 62.5056 191.047 63.1961C191.047 63.8335 191.578 64.4178 192.269 64.4178Z" stroke="white" stroke-width="0.3478" stroke-miterlimit="10"/>
<path d="M161.301 64.4178C161.992 64.4178 162.523 63.8866 162.523 63.1961C162.523 62.5056 161.992 61.9744 161.301 61.9744C160.611 61.9744 160.08 62.5056 160.08 63.1961C160.08 63.8335 160.664 64.4178 161.301 64.4178Z" stroke="white" stroke-width="0.3478" stroke-miterlimit="10"/>
<path d="M186.903 74.9879C187.381 75.466 188.178 75.466 188.656 74.9879C189.134 74.5099 189.134 73.7131 188.656 73.2351C188.178 72.757 187.381 72.757 186.903 73.2351C186.372 73.7131 186.372 74.5099 186.903 74.9879Z" stroke="white" stroke-width="0.3478" stroke-miterlimit="10"/>
<path d="M165.869 53.4757C166.544 53.4757 167.091 52.9287 167.091 52.254C167.091 51.5793 166.544 51.0323 165.869 51.0323C165.194 51.0323 164.647 51.5793 164.647 52.254C164.647 52.9287 165.194 53.4757 165.869 53.4757Z" stroke="white" stroke-width="0.3478" stroke-miterlimit="10"/>
<path d="M147.332 89.2231C147.332 89.2231 177.82 78.9185 206.291 88.7451" stroke="#118D45" stroke-width="0.6955" stroke-miterlimit="10" stroke-dasharray="5.56 5.56"/>
<path d="M151.049 44.8709C159.548 42.64 181.432 38.1782 202.891 44.3929" stroke="#118D45" stroke-width="0.6955" stroke-miterlimit="10" stroke-dasharray="5.56 5.56"/>
<path d="M147.332 96.6064C147.332 96.6064 177.82 86.3018 206.291 96.1284" stroke="#118D45" stroke-width="0.6955" stroke-miterlimit="10" stroke-dasharray="5.56 5.56"/>
<g opacity="0.79">
<path opacity="0.79" d="M188.869 200.29C189.559 202.786 190.621 205.177 191.949 207.301C193.277 209.479 194.924 211.444 196.836 213.091C198.748 214.737 200.926 216.119 203.263 217.128C205.6 218.137 208.097 218.827 210.646 219.199C208.044 219.305 205.388 218.827 202.945 217.924C200.448 217.021 198.164 215.64 196.146 213.941C194.127 212.188 192.481 210.116 191.206 207.779C189.984 205.442 189.134 202.893 188.869 200.29Z" fill="white"/>
</g>
<g opacity="0.79">
<path opacity="0.79" d="M166.506 202.786C166.241 205.124 165.55 207.354 164.594 209.532C163.638 211.657 162.363 213.675 160.876 215.534C159.389 217.34 157.636 218.987 155.724 220.315C153.812 221.696 151.687 222.758 149.456 223.449C151.528 222.333 153.44 221.058 155.193 219.624C156.945 218.19 158.592 216.597 160.026 214.791C161.46 213.038 162.735 211.126 163.851 209.107C164.966 207.142 165.816 205.017 166.506 202.786Z" fill="white"/>
</g>
<g opacity="0.79">
<path opacity="0.79" d="M168.631 215.162C168.472 215.959 168.206 216.703 167.941 217.446C167.675 218.19 167.356 218.934 166.985 219.624C166.613 220.315 166.241 221.005 165.816 221.696C165.391 222.386 164.913 223.024 164.382 223.608C164.541 222.811 164.807 222.068 165.072 221.324C165.338 220.58 165.657 219.837 166.028 219.146C166.4 218.456 166.772 217.765 167.197 217.075C167.622 216.437 168.047 215.8 168.631 215.162Z" fill="white"/>
</g>
<g opacity="0.79">
<path opacity="0.79" d="M178.139 220.474C178.404 220.793 178.564 221.111 178.723 221.483C178.882 221.802 178.936 222.174 178.989 222.545C179.042 222.917 179.095 223.236 179.042 223.608C179.042 223.98 178.989 224.351 178.829 224.723C178.564 224.404 178.404 224.086 178.245 223.714C178.086 223.395 178.033 223.023 177.979 222.652C177.926 222.28 177.873 221.961 177.926 221.589C177.926 221.218 177.979 220.846 178.139 220.474Z" fill="white"/>
</g>
<g opacity="0.79">
<path opacity="0.79" d="M185.256 214.791L186.69 217.075C187.169 217.818 187.647 218.509 188.178 219.252C188.709 219.943 189.24 220.633 189.771 221.324L191.524 223.342C190.674 222.971 189.877 222.493 189.187 221.908C188.496 221.324 187.859 220.633 187.275 219.89C186.744 219.146 186.266 218.349 185.894 217.5C185.575 216.597 185.363 215.694 185.256 214.791Z" fill="white"/>
</g>
<path d="M84.5199 198.271H127.704V195.137H84.5199V198.271Z" fill="#424242"/>
<path d="M109.831 232L127.094 198.431H84.654L67.3911 232" stroke="#424242" stroke-width="0.679" stroke-miterlimit="10"/>
<path d="M120.614 210.382H78.4395" stroke="#424242" stroke-width="0.679" stroke-miterlimit="10"/>
<path d="M113.177 224.776H71.0029" stroke="#424242" stroke-width="0.679" stroke-miterlimit="10"/>
<path d="M110.416 232.744L112.912 227.857L110.575 227.91L108.025 232.85L110.416 232.744Z" fill="#4F6AFF"/>
<path d="M68.4537 232.744L70.9502 227.857L68.5599 227.91L66.0635 232.85L68.4537 232.744Z" fill="#4F6AFF"/>
<path d="M136.23 229.716L127.094 198.431" stroke="#424242" stroke-width="0.679" stroke-miterlimit="10"/>
<path d="M93.8963 229.716L84.7603 198.431" stroke="#424242" stroke-width="0.679" stroke-miterlimit="10"/>
<path d="M133.946 99.7932C133.946 99.7932 124.81 113.763 122.314 112.01C122.314 112.01 118.33 109.992 119.764 101.759C119.764 100.962 119.764 100.431 119.764 100.271C119.764 100.271 119.127 92.1445 117.799 90.4979C117.64 90.3385 117.215 89.9667 117.268 89.9667C121.358 88.9575 122.951 97.6155 124.067 102.343C124.12 102.555 131.822 96.5531 131.822 96.5531C131.822 96.5531 135.912 91.1884 136.177 91.5071C136.602 91.932 135.009 94.3754 135.009 94.3754C135.009 94.3754 135.115 94.6409 135.434 94.8003C135.752 94.9596 135.912 95.119 136.018 95.5439C136.124 95.9688 136.549 96.1813 136.602 96.4469C136.602 96.6594 134.796 99.1558 133.946 99.7932Z" fill="#FEB38C"/>
<path d="M131.927 96.553C131.927 96.553 132.724 94.2159 133.096 94.269C133.415 94.3221 134.955 95.0126 134.902 95.5969C134.849 96.1812 133.574 95.7032 133.574 95.7032C133.574 95.7032 133.839 97.0311 133.149 97.1904C132.512 97.3498 131.927 96.553 131.927 96.553Z" fill="#FEB38C"/>
<path d="M133.946 95.597C133.946 95.597 133.893 96.1813 134.371 96.2875C134.371 96.2875 134.477 96.9249 135.115 96.7655C135.115 96.7655 134.955 97.0311 135.327 97.0842C135.327 97.0842 133.734 98.8371 133.946 95.597Z" fill="#F79A88"/>
<path d="M133.627 94.4298C133.946 94.536 134.265 94.6423 134.584 94.8016C134.743 94.8547 134.902 94.9079 135.062 95.0672C135.115 95.1203 135.221 95.2266 135.274 95.3328C135.327 95.439 135.274 95.5984 135.168 95.7046C134.849 95.9702 134.424 95.9702 134.105 95.9702C133.999 95.9702 133.893 95.9702 133.893 95.9702C133.893 95.9171 133.893 96.0764 133.893 96.1295L133.946 96.6607L133.84 96.1295C133.84 96.0233 133.787 95.9702 133.84 95.864C133.946 95.8108 133.999 95.8108 134.105 95.8108C134.424 95.8108 134.796 95.7577 135.062 95.5453C135.115 95.4921 135.168 95.3859 135.115 95.3328C135.115 95.2797 135.008 95.1734 134.955 95.1203C134.796 95.0141 134.637 94.961 134.53 94.8547L133.627 94.4298Z" fill="#EC7A65"/>
<path d="M135.008 94.2691C135.008 94.3222 135.008 94.4285 134.955 94.4816C134.902 94.5347 134.902 94.5878 134.849 94.6409C134.796 94.694 134.743 94.7471 134.69 94.7471C134.636 94.8003 134.583 94.8003 134.477 94.8003C134.636 94.6409 134.849 94.4285 135.008 94.2691Z" fill="#EC7A65"/>
<path d="M135.699 95.1721C135.592 95.3314 135.539 95.4908 135.38 95.6501C135.274 95.8095 135.114 95.9157 134.955 96.0219C134.796 96.1282 134.636 96.2344 134.477 96.2875C134.371 96.3406 134.264 96.3406 134.158 96.3406C134.052 96.3406 133.946 96.2344 133.893 96.1813C133.999 96.3406 134.211 96.2875 134.371 96.2344C134.53 96.1282 134.689 96.0219 134.796 95.9157C135.22 95.6501 135.486 95.3845 135.699 95.1721Z" fill="#EC7A65"/>
<path d="M134.371 96.2876C134.477 96.5 134.53 96.6594 134.689 96.7125C134.796 96.7656 135.008 96.7125 135.114 96.6063C135.274 96.5 135.433 96.3407 135.539 96.2344C135.699 96.0751 135.858 95.9689 136.017 95.8095C135.911 95.9689 135.752 96.1282 135.592 96.2876C135.433 96.4469 135.327 96.6063 135.167 96.7125C135.008 96.8187 134.796 96.925 134.583 96.8187C134.424 96.7125 134.424 96.4469 134.371 96.2876Z" fill="#EC7A65"/>
<path d="M135.114 96.6595C135.167 96.7657 135.22 96.8719 135.273 96.9782C135.327 97.0313 135.327 97.0844 135.38 97.0844C135.38 97.0844 135.433 97.0844 135.486 97.0844C135.592 97.0844 135.698 97.0844 135.805 97.0313C135.964 97.0313 136.017 97.0313 136.176 96.9782C136.123 97.0844 135.964 97.1375 135.858 97.1906C135.751 97.2438 135.592 97.2969 135.486 97.2438C135.433 97.2438 135.327 97.2438 135.327 97.1906C135.273 97.1375 135.273 97.0844 135.22 97.0313C135.114 96.8719 135.061 96.7657 135.114 96.6595Z" fill="#EC7A65"/>
<path d="M108.238 95.8094C108.238 95.8094 102.82 95.172 103.457 94.8533C104.095 94.5346 108.663 92.8349 109.512 92.3037C110.415 91.7726 111 91.8788 111 91.8788L117.427 77.0062C117.533 76.1563 115.939 74.0316 115.196 73.6067C113.071 72.385 110.522 72.2257 108.131 72.7037C100.376 74.2972 88.1065 79.8213 83.9634 83.8051C83.9634 83.8051 102.501 101.44 108.556 100.59" fill="#2B261C"/>
<path d="M82.7947 82.5295C86.7784 80.5642 90.9215 78.7582 95.0646 77.1647C98.464 75.8368 101.917 74.6151 105.422 73.7653C106.697 73.4466 107.972 73.181 109.247 73.1279C109.565 73.1279 109.565 72.6498 109.247 72.6498C106.591 72.6498 103.882 73.6059 101.385 74.4027C97.4017 75.6775 93.4711 77.2179 89.5936 78.8645C87.2034 79.8737 84.8662 80.9891 82.5291 82.1046C82.3166 82.2639 82.5291 82.6357 82.7947 82.5295Z" fill="#2B261C"/>
<path d="M109.3 80.3526C109.3 80.4588 109.194 80.565 109.088 80.565C108.61 80.565 107.494 80.4588 107.335 81.7336C107.176 83.0084 108.397 83.752 109.141 83.8051C109.353 83.8051 109.831 83.8583 109.991 84.0176C110.416 84.4956 110.628 85.558 111 86.8859C111.744 89.8073 109.46 91.1352 109.46 91.1352C109.46 91.1352 117.108 94.9065 117.002 91.1352C117.002 91.1352 116.418 84.2301 116.418 84.177C117.002 83.5927 119.339 83.3271 117.852 78.3873C116.524 73.8192 113.178 74.1379 112.328 74.2973C111.637 74.4035 109.141 74.5629 109.3 80.3526Z" fill="#FEB38C"/>
<path d="M114.718 73.8193C114.718 73.8193 110.044 79.9808 109.247 80.512C109.194 80.512 106.007 72.9694 114.718 73.8193Z" fill="#2B261C"/>
<path d="M107.866 82.1053C107.866 82.1053 108.609 80.5118 109.619 82.6365L107.866 82.1053Z" fill="#EC7A65"/>
<path d="M113.549 80.3525C114.186 80.3525 114.717 80.8305 114.717 81.4679C114.717 82.1053 114.239 82.6365 113.602 82.6365C112.965 82.6365 112.433 82.1584 112.433 81.521C112.38 80.8836 112.911 80.3525 113.549 80.3525Z" fill="#F79A88"/>
<path d="M118.33 80.7774C117.798 80.6712 117.427 80.2463 117.374 79.662C117.374 79.2371 117.586 78.8652 117.905 78.6528C117.905 78.6528 118.436 79.9276 118.33 80.7774Z" fill="#F79A88"/>
<path d="M116.418 84.1238C116.418 84.1238 114.24 84.5487 113.124 84.4425C112.062 84.3894 117.533 90.7102 116.418 84.1238Z" fill="#1E274D"/>
<path d="M113.921 74.4035C114.027 75.8908 113.124 77.4312 112.168 78.4935C111.265 79.5027 109.884 80.2464 108.503 80.1401C108.185 80.087 108.238 80.5651 108.503 80.6182C109.991 80.7775 111.531 79.9277 112.487 78.8653C113.549 77.6968 114.505 76.1033 114.399 74.4567C114.399 74.0848 113.921 74.0848 113.921 74.4035Z" fill="#18004C"/>
<path d="M111 85.3455C111 85.8767 110.575 86.3547 109.991 86.3547C109.459 86.3547 108.981 85.9298 108.981 85.3455C108.981 84.8143 109.406 84.3363 109.991 84.3363C110.575 84.3894 111 84.8143 111 85.3455Z" fill="white"/>
<path d="M111 87.364C111 87.8952 110.575 88.3732 109.991 88.3732C109.459 88.3732 108.981 87.9483 108.981 87.364C108.981 86.7797 109.406 86.3548 109.991 86.3548C110.575 86.3548 111 86.7797 111 87.364Z" fill="white"/>
<path d="M111.372 83.221L109.991 85.1863L108.716 83.1147L111.372 83.221Z" fill="#4F6AFF"/>
<path d="M110.682 184.674L111.532 190.676C111.532 190.676 112.859 194.659 114.134 193.119C115.409 191.579 116.631 190.782 116.631 190.782L117.056 184.567L110.682 184.674Z" fill="#F5836B"/>
<path d="M113.974 184.886L114.187 193.013C114.187 193.013 110.203 193.597 111.69 190.941L110.84 185.311L113.974 184.886Z" fill="#FEB38C"/>
<path d="M96.9771 184.833L95.118 190.782C95.118 190.782 93.6838 192.003 93.2058 192.003C92.2497 191.95 91.7716 190.357 91.7716 190.357L91.6123 184.833H96.9771Z" fill="#F5836B"/>
<path d="M94.2687 183.239L92.9408 193.119C92.9408 193.119 90.285 193.809 91.7722 191.154L91.4536 183.558L94.2687 183.239Z" fill="#FEB38C"/>
<path d="M117.002 190.676L121.995 194.712C122.261 194.925 122.048 195.244 121.676 195.244L114.293 195.297C114.134 195.297 113.975 195.244 113.921 195.084L113.39 193.916C113.231 193.597 112.912 193.544 112.912 193.916L112.647 195.031C112.647 195.19 110.894 195.137 110.894 194.978C110.788 194.022 111 190.782 111.159 189.879C111.159 189.773 111.319 189.666 111.478 189.613C111.637 189.613 111.797 189.613 111.903 189.719C112.381 190.198 113.975 191.632 114.824 191.366C115.409 191.154 116.152 190.835 116.365 190.622C116.577 190.569 116.843 190.569 117.002 190.676Z" fill="#001B3D"/>
<path d="M91.6654 190.144L88.7971 194.925C88.4784 195.403 88.6378 195.934 89.222 196.253C90.125 196.784 90.8155 197.846 91.3998 197.846C92.409 197.899 94.0025 196.784 94.9055 196.412C95.5429 196.147 96.021 195.775 95.9147 195.244L95.2242 190.463C95.2242 190.41 95.118 190.357 95.0649 190.41L93.9494 191.419C93.5776 191.738 92.6215 191.685 92.409 191.313C92.2497 191.047 91.8248 190.144 91.8248 190.144C91.8248 190.091 91.7185 190.091 91.6654 190.144Z" fill="#001B3D"/>
<path d="M105.688 110.416C103.51 114.241 102.395 117.003 101.173 121.89C99.7392 127.52 86.4069 175.112 85.7695 185.364C87.5224 185.789 101.28 185.736 102.395 185.682C105.954 175.484 110.734 142.286 112.275 135.859C112.487 134.85 114.027 135.062 113.921 136.072C113.071 143.402 107.707 174.369 105.423 185.682C106.379 186.16 120.508 186.054 121.57 185.895C122.739 173.306 128.953 125.555 119.605 110.098C115.249 109.513 109.991 110.31 105.688 110.416Z" fill="#133C6B"/>
<path d="M118.596 110.735C118.596 110.735 122.739 121.199 122.739 134.531C122.739 147.864 118.064 185.47 118.064 185.47" stroke="white" stroke-width="0.314" stroke-miterlimit="10"/>
<path d="M88.4785 185.258L107.76 111.319" stroke="white" stroke-width="0.314" stroke-miterlimit="10"/>
<path d="M110.469 111.691C110.469 111.691 110.363 123.908 104.892 122.899" stroke="white" stroke-width="0.314" stroke-miterlimit="10"/>
<path d="M121.783 123.483C116.312 124.439 117.055 111.426 117.055 111.426" stroke="white" stroke-width="0.314" stroke-miterlimit="10"/>
<path opacity="0.21" d="M119.605 110.841L101.864 125.289C101.864 125.289 101.757 116.047 104.891 110.151L119.605 110.841Z" fill="#1E274D"/>
<path d="M118.543 90.551C118.436 90.8697 121.942 99.5808 121.783 102.555C121.623 105.53 121.677 109.832 121.836 110.257C121.836 110.257 117.427 112.86 104.626 110.841C100.696 107.389 104.148 95.7033 105.476 92.0382C105.476 92.0382 107.972 90.7634 109.088 90.7103C109.088 90.6572 113.762 92.5163 118.543 90.551Z" fill="#FFD026"/>
<path d="M109.088 90.6054L110.894 88.2151C110.894 88.2151 113.072 89.7555 116.312 90.871L116.259 95.0672C116.259 95.1734 116.099 95.2796 115.993 95.1734C114.984 94.6954 110.416 92.6238 109.088 90.6054Z" fill="white"/>
<path d="M116.736 88.1075C116.736 88.1075 117.268 90.0197 116.258 90.8165L117.692 94.9065C117.799 95.2252 118.011 95.2252 118.064 95.0658C118.277 94.0035 118.702 91.7726 118.436 90.3916L116.736 88.1075Z" fill="white"/>
<path d="M117.374 95.2783C117.374 95.597 117.268 95.8095 117.056 95.8095C116.843 95.8095 116.737 95.5439 116.737 95.2783C116.737 94.9596 116.843 94.7471 117.056 94.7471C117.268 94.7471 117.374 94.9596 117.374 95.2783Z" fill="white"/>
<path d="M117.533 97.6155C117.533 97.9342 117.427 98.1466 117.215 98.1466C117.055 98.1466 116.896 97.881 116.896 97.6155C116.896 97.2968 117.002 97.0843 117.215 97.0843C117.427 97.0843 117.533 97.3499 117.533 97.6155Z" fill="white"/>
<path d="M117.64 100.218C117.64 100.537 117.534 100.749 117.321 100.749C117.109 100.749 117.002 100.484 117.002 100.218C117.002 99.8995 117.109 99.6871 117.321 99.6871C117.534 99.6871 117.64 99.9527 117.64 100.218Z" fill="white"/>
<path d="M117.374 103.671C117.55 103.671 117.693 103.433 117.693 103.14C117.693 102.846 117.55 102.608 117.374 102.608C117.198 102.608 117.055 102.846 117.055 103.14C117.055 103.433 117.198 103.671 117.374 103.671Z" fill="white"/>
<path d="M117.64 106.008C117.64 106.327 117.534 106.539 117.321 106.539C117.109 106.539 117.002 106.273 117.002 106.008C117.002 105.689 117.109 105.477 117.321 105.477C117.534 105.477 117.64 105.689 117.64 106.008Z" fill="white"/>
<path d="M117.374 109.407C117.55 109.407 117.693 109.169 117.693 108.876C117.693 108.583 117.55 108.345 117.374 108.345C117.198 108.345 117.055 108.583 117.055 108.876C117.055 109.169 117.198 109.407 117.374 109.407Z" fill="white"/>
<path d="M107.6 137.506L91.0811 126.936L97.9331 116.259L112.168 125.395C113.39 126.192 113.762 127.839 112.965 129.06L107.6 137.506Z" fill="#98CCFE"/>
<path d="M105.051 126.776C105.051 128.051 104.042 129.06 102.767 129.06C101.492 129.06 100.483 128.051 100.483 126.776C100.483 125.502 101.492 124.492 102.767 124.492C104.042 124.492 105.051 125.555 105.051 126.776Z" fill="white"/>
<path opacity="0.6" d="M101.757 118.331C101.757 118.331 99.1016 119.553 101.173 127.095C101.279 127.52 101.386 127.945 101.279 128.37L100.801 131.61C100.748 131.982 100.695 132.407 100.961 132.619C101.332 132.885 103.404 134.797 103.67 134.903C104.201 135.063 103.616 132.513 103.723 131.185C103.723 130.92 103.776 132.035 103.829 132.513L103.882 133.575C104.519 133.31 104.519 132.088 104.573 131.663C104.679 131.132 104.573 130.76 104.519 130.654C104.254 130.07 103.67 128.848 103.616 127.786C103.563 127.148 103.988 124.811 104.36 120.509L101.757 118.331Z" fill="#1E274D"/>
<path d="M101.439 100.006C96.4988 127.573 99.6858 132.779 100.058 132.991C100.483 133.257 102.767 135.381 103.032 135.488C103.616 135.7 102.979 132.885 103.085 131.398C103.085 131.132 103.138 132.354 103.191 132.885L103.245 134.053C103.935 133.735 103.935 132.407 104.041 131.982C104.201 131.398 104.094 130.973 103.988 130.866C103.67 130.229 103.085 128.901 102.979 127.733C102.926 127.042 107.6 104.68 108.397 101.387C109.512 96.925 108.131 91.7727 106.538 91.6134C104.573 91.2947 101.81 97.7218 101.439 100.006Z" fill="#FEB38C"/>
<path d="M131.769 70.4199H140.851L143.826 73.9256V65.5332C143.826 62.8243 142.179 60.6465 140.161 60.6465H131.769C129.75 60.6465 128.104 62.8243 128.104 65.5332C128.104 68.189 129.75 70.4199 131.769 70.4199Z" fill="#4F6AFF"/>
<path d="M136.602 64.2053H135.062V67.8172H136.602V64.2053Z" fill="white"/>
<path d="M134.425 65.3738H132.884V67.8172H134.425V65.3738Z" fill="white"/>
<path d="M138.939 63.1429H137.399V67.8172H138.939V63.1429Z" fill="white"/>
<path d="M233.539 92.5695C233.539 89.0638 230.724 86.2487 227.218 86.2487C223.713 86.2487 220.897 89.0638 220.897 92.5695C220.897 96.0752 226.9 101.546 226.9 101.546C226.9 101.546 233.539 96.0752 233.539 92.5695Z" fill="#4F6AFF"/>
<path d="M226.9 101.546C226.9 101.546 233.539 96.0752 233.539 92.5695C233.539 89.0638 230.724 86.2487 227.219 86.2487" fill="#18004C"/>
<path d="M225.413 98.6779C225.413 98.6779 226.21 92.0383 225.307 92.4632C224.404 92.8882 223.873 93.8974 224.882 94.1098C225.891 94.3223 229.981 94.1098 229.981 94.1098C229.981 94.1098 230.353 92.9413 229.662 92.6757C228.653 92.2508 228.653 96.1283 228.441 98.8903" stroke="white" stroke-width="0.3166" stroke-miterlimit="10"/>
<path d="M229.45 100.112H224.351C223.979 100.112 223.66 99.7933 223.66 99.4215C223.66 99.0497 223.979 98.731 224.351 98.731H229.45C229.822 98.731 230.14 99.0497 230.14 99.4215C230.193 99.7933 229.875 100.112 229.45 100.112Z" fill="#18293D"/>
<path d="M227.006 103.352C225.36 103.352 224.032 102.024 224.032 100.378V99.8464H229.928V100.378C229.981 102.024 228.653 103.352 227.006 103.352Z" fill="#18293D" stroke="#EAEBEC" stroke-width="0.4326" stroke-miterlimit="10"/>
<path d="M215.852 92.6226H218.72" stroke="white" stroke-width="0.8127" stroke-miterlimit="10" stroke-linecap="round"/>
<path d="M235.93 92.6226H238.798" stroke="white" stroke-width="0.8127" stroke-miterlimit="10" stroke-linecap="round"/>
<path d="M219.198 84.4958L221.217 86.5142" stroke="white" stroke-width="0.8127" stroke-miterlimit="10" stroke-linecap="round"/>
<path d="M233.38 98.678L235.452 100.75" stroke="white" stroke-width="0.8127" stroke-miterlimit="10" stroke-linecap="round"/>
<path d="M227.325 81.0963V84.0177" stroke="white" stroke-width="0.8127" stroke-miterlimit="10" stroke-linecap="round"/>
<path d="M235.452 84.4957L233.38 86.5142" stroke="white" stroke-width="0.8127" stroke-miterlimit="10" stroke-linecap="round"/>
<path d="M221.217 98.6779L219.198 100.749" stroke="white" stroke-width="0.8127" stroke-miterlimit="10" stroke-linecap="round"/>
<path d="M233.115 121.305C233.008 120.402 235.93 109.885 236.355 109.142C237.47 107.123 242.516 106.698 244.694 108.079C248.253 110.31 253.724 120.509 252.608 123.164L233.115 121.305Z" fill="#2B261C"/>
<path d="M243.791 115.303C243.791 115.409 243.897 115.516 244.003 115.516C244.481 115.516 245.597 115.409 245.756 116.684C245.916 117.959 244.694 118.703 243.95 118.756C243.738 118.756 243.26 118.809 243.1 118.968C242.675 119.446 242.463 120.508 242.091 121.836C241.348 124.758 243.632 126.086 243.632 126.086C243.632 126.086 235.983 129.857 236.036 126.086C236.036 126.086 236.62 119.181 236.62 119.127C236.036 118.543 233.699 118.278 235.186 113.338C236.514 108.77 239.913 109.088 240.763 109.248C241.454 109.354 243.95 109.513 243.791 115.303Z" fill="#FF9C75"/>
<path d="M244.004 115.197C244.004 115.303 244.11 115.409 244.216 115.409C244.694 115.409 245.81 115.303 245.969 116.578C246.128 117.853 244.907 118.596 244.163 118.649C243.951 118.649 243.473 118.703 243.313 118.862C242.888 119.34 242.676 120.402 242.304 121.73C241.56 124.652 243.844 125.98 243.844 125.98C243.844 125.98 236.196 129.751 236.249 125.98C236.249 125.98 236.833 119.074 236.833 119.021C236.249 118.437 233.912 118.171 235.399 113.232C236.727 108.664 240.126 108.982 240.976 109.142C241.667 109.248 244.163 109.407 244.004 115.197Z" fill="#FF9C75"/>
<path d="M238.852 108.504C238.852 108.504 240.286 115.091 242.092 115.781C244.057 116.525 243.898 113.391 244.11 115.463C244.11 115.463 247.669 105.742 238.852 108.504Z" fill="#2B261C"/>
<path d="M245.225 117.056C245.225 117.056 244.481 115.409 243.472 117.587L245.225 117.056Z" fill="#E6713E"/>
<path d="M239.542 115.303C238.905 115.303 238.374 115.781 238.374 116.419C238.374 117.056 238.852 117.587 239.489 117.587C240.126 117.587 240.658 117.109 240.658 116.472C240.658 115.834 240.18 115.303 239.542 115.303Z" fill="#FF8752"/>
<path d="M234.761 115.728C235.293 115.622 235.664 115.197 235.718 114.613C235.718 114.188 235.505 113.816 235.133 113.603C235.133 113.603 234.655 114.878 234.761 115.728Z" fill="#FF8752"/>
<path d="M236.621 119.128C236.621 119.128 238.799 119.552 239.914 119.499C241.029 119.393 236.249 122.208 236.621 119.128Z" fill="black"/>
<path d="M248.89 230.619C261.475 230.619 271.677 230.024 271.677 229.291C271.677 228.558 261.475 227.963 248.89 227.963C236.306 227.963 226.104 228.558 226.104 229.291C226.104 230.024 236.306 230.619 248.89 230.619Z" fill="#E5F1FF"/>
<path d="M237.842 219.942L237.045 225.573C237.045 225.573 235.771 229.291 234.602 227.857C233.433 226.423 232.265 225.626 232.265 225.626L231.893 219.783L237.842 219.942Z" fill="#FF7B4D"/>
<path d="M234.761 220.155L234.549 227.804C234.549 227.804 238.267 228.388 236.886 225.838L237.683 220.527L234.761 220.155Z" fill="#FF8752"/>
<path d="M256.646 219.465L258.398 225.095C258.398 225.095 259.726 226.264 260.204 226.21C261.054 226.157 261.532 224.67 261.532 224.67L261.692 219.465H256.646Z" fill="#FF7B4D"/>
<path d="M259.195 217.977L260.417 227.273C260.417 227.273 262.913 227.91 261.532 225.413L261.851 218.243L259.195 217.977Z" fill="#FF8752"/>
<path d="M231.84 225.626L227.113 229.45C226.847 229.61 227.06 229.928 227.379 229.928L234.337 229.982C234.496 229.982 234.656 229.928 234.709 229.769L235.24 228.707C235.399 228.388 235.718 228.388 235.665 228.707L235.93 229.769C235.93 229.928 237.577 229.875 237.577 229.716C237.683 228.813 237.471 225.785 237.311 224.936C237.311 224.829 237.152 224.723 236.993 224.67C236.833 224.67 236.674 224.67 236.621 224.776C236.143 225.254 234.656 226.582 233.859 226.317C233.328 226.157 232.637 225.785 232.425 225.626C232.265 225.467 232 225.467 231.84 225.626Z" fill="#001B3D"/>
<path d="M261.638 224.51L264.294 228.972C264.559 229.397 264.4 229.928 263.922 230.247C263.072 230.725 262.382 231.734 261.85 231.734C260.894 231.734 259.407 230.778 258.557 230.406C257.973 230.141 257.548 229.769 257.601 229.291L258.292 224.776C258.292 224.723 258.398 224.723 258.451 224.723L259.46 225.679C259.779 225.998 260.735 225.945 260.948 225.573C261.107 225.307 261.479 224.457 261.479 224.457C261.532 224.457 261.585 224.457 261.638 224.51Z" fill="#001B3D"/>
<path d="M247.404 145.42C249.581 149.245 250.697 152.06 251.972 156.893C253.406 162.524 261.479 210.169 262.117 220.421C260.364 220.846 257.655 220.633 256.54 220.58C252.981 210.328 242.357 177.29 240.87 170.81C240.658 169.801 239.117 170.013 239.224 171.022C240.073 178.405 238.746 208.31 238.055 220.739C237.099 221.217 232.69 221.111 231.575 221.005C230.406 208.363 224.192 160.558 233.593 145.048C237.843 144.57 243.048 145.314 247.404 145.42Z" fill="#133C6B"/>
<path d="M234.124 146.801C234.124 146.801 230.3 156.256 230.3 169.588C230.3 182.92 232.796 216.809 232.796 216.809" stroke="white" stroke-width="0.3147" stroke-miterlimit="10"/>
<path d="M258.982 216.649L245.278 146.376" stroke="white" stroke-width="0.3147" stroke-miterlimit="10"/>
<path d="M242.623 146.748C242.623 146.748 242.729 158.965 248.253 158.009" stroke="white" stroke-width="0.3147" stroke-miterlimit="10"/>
<path opacity="0.21" d="M233.593 147.067L251.228 160.346C251.228 160.346 251.972 153.175 248.838 147.279L233.593 147.067Z" fill="black"/>
<path d="M231.255 158.593C236.726 159.549 235.877 147.385 235.877 147.385" stroke="white" stroke-width="0.3147" stroke-miterlimit="10"/>
<path d="M238.214 216.968L231.043 216.809" stroke="white" stroke-width="0.3147" stroke-miterlimit="10"/>
<path d="M261.798 216.968L255.317 216.809" stroke="white" stroke-width="0.3147" stroke-miterlimit="10"/>
<path d="M214.524 138.462C214.524 138.462 230.937 149.404 232.796 146.642C232.796 146.642 234.921 143.508 230.353 135.7C230.034 134.903 229.821 134.319 229.821 134.213C229.821 134.213 234.708 127.626 235.452 125.448C235.505 125.183 235.824 124.705 235.77 124.705C231.256 125.236 231.202 135.753 226.847 139.577C226.688 139.737 216.064 135.062 216.064 135.062C216.064 135.062 209.85 131.132 209.69 131.557C209.425 132.194 211.974 134 211.974 134C211.974 134 211.974 134.319 211.709 134.584C211.443 134.85 211.337 135.116 211.39 135.594C211.443 136.072 211.124 136.444 211.124 136.709C211.178 136.868 213.408 138.143 214.524 138.462Z" fill="#FF9C75"/>
<path d="M215.905 134.956C215.905 134.956 214.152 132.885 213.833 133.097C213.515 133.31 212.24 134.531 212.505 135.116C212.771 135.7 213.886 134.691 213.886 134.691C213.886 134.691 214.152 136.125 214.896 136.019C215.586 136.019 215.905 134.956 215.905 134.956Z" fill="#FF9C75"/>
<path d="M213.462 134.797C213.462 134.797 213.727 135.381 213.249 135.647C213.249 135.647 213.356 136.337 212.718 136.39C212.718 136.39 212.984 136.603 212.665 136.815C212.665 136.815 214.949 137.984 213.462 134.797Z" fill="#FF8752"/>
<path d="M213.355 133.522C213.143 133.841 212.931 134.16 212.665 134.425C212.559 134.585 212.399 134.691 212.346 134.85C212.24 135.009 212.293 135.063 212.346 135.116C212.612 135.222 212.984 135.116 213.355 135.009C213.462 135.009 213.515 134.903 213.727 134.956C213.834 135.009 213.834 135.116 213.834 135.169V135.328L213.887 135.912L213.78 135.381C213.78 135.275 213.78 135.169 213.674 135.116C213.568 135.116 213.515 135.169 213.409 135.169C213.09 135.275 212.665 135.434 212.293 135.275C212.187 135.222 212.134 135.169 212.134 135.063C212.134 134.956 212.187 134.85 212.24 134.797C212.346 134.638 212.506 134.531 212.612 134.372L213.355 133.522Z" fill="#E6713E"/>
<path d="M211.868 133.841C211.974 133.841 212.028 133.841 212.081 133.841C212.134 133.841 212.24 133.894 212.293 133.894C212.346 133.947 212.399 133.947 212.452 134C212.506 134.053 212.559 134.106 212.612 134.16C212.399 134.106 212.134 134 211.868 133.841Z" fill="#E6713E"/>
<path d="M211.496 135.01C211.709 135.063 211.868 135.116 212.08 135.169C212.24 135.222 212.452 135.275 212.612 135.328C212.771 135.381 212.983 135.435 213.143 135.488C213.249 135.488 213.302 135.541 213.408 135.488C213.515 135.488 213.568 135.435 213.621 135.381C213.568 135.594 213.302 135.647 213.143 135.594C212.93 135.541 212.771 135.488 212.558 135.435C212.187 135.381 211.868 135.222 211.496 135.01Z" fill="#E6713E"/>
<path d="M213.302 135.647C213.409 135.859 213.462 136.125 213.302 136.391C213.196 136.497 213.037 136.603 212.931 136.603C212.771 136.603 212.665 136.603 212.559 136.55C212.346 136.444 212.134 136.391 211.921 136.231C211.709 136.125 211.549 135.966 211.39 135.806C211.603 135.912 211.762 136.019 211.974 136.125C212.187 136.231 212.399 136.337 212.612 136.391C212.824 136.444 213.09 136.444 213.249 136.284C213.355 136.125 213.355 135.859 213.302 135.647Z" fill="#E6713E"/>
<path d="M212.718 136.284C212.824 136.391 212.877 136.55 212.877 136.709C212.877 136.762 212.877 136.869 212.877 136.975C212.824 137.081 212.718 137.134 212.665 137.187C212.505 137.294 212.346 137.24 212.187 137.24C212.134 137.24 212.027 137.24 211.974 137.187C211.868 137.134 211.815 137.081 211.762 137.028C211.868 137.081 212.027 137.081 212.134 137.081C212.293 137.081 212.399 137.081 212.558 137.028C212.612 136.975 212.665 136.975 212.718 136.922C212.771 136.869 212.771 136.815 212.771 136.709C212.771 136.55 212.771 136.444 212.718 136.284Z" fill="#E6713E"/>
<path d="M235.824 123.961C235.824 123.961 233.593 124.28 232.106 127.201C230.884 129.538 226.369 139.152 226.369 139.152L217.392 135.275L216.596 140.905C216.596 140.905 230.459 149.244 232.849 147.385C235.186 145.579 236.992 126.936 235.824 123.961Z" fill="white"/>
<path d="M236.249 123.802C236.355 124.12 231.15 134.531 231.256 137.506C231.415 140.48 233.434 145.526 233.274 146.004C233.274 146.004 235.612 147.81 248.413 145.845C252.343 142.393 248.891 130.707 247.563 126.989C247.563 126.989 244.057 126.511 242.623 124.705C242.623 124.652 236.939 129.113 236.249 123.802Z" fill="white"/>
<g opacity="0.37">
<path opacity="0.37" d="M248.572 130.123C250.006 135.116 251.546 143.136 248.412 145.845C240.339 147.12 236.408 146.854 234.655 146.482C239.383 141.118 244.11 135.7 248.572 130.123Z" fill="#95A1E6"/>
</g>
<path d="M238.321 147.864L230.566 138.409L222.333 138.462L228.653 147.173L232.372 147.704C232.584 147.757 238.321 147.864 238.321 147.864Z" fill="#4F6AFF"/>
<path d="M233.858 142.446V143.827L235.717 144.517L233.858 142.446Z" fill="#020F2B"/>
<path d="M241.826 149.776C235.399 148.395 231.468 146.907 230.724 146.642C230.299 146.482 229.078 145.951 229.078 145.739C229.078 145.314 231.521 146.429 231.468 146.323C231.362 146.217 228.44 145.261 228.44 144.889C228.44 144.358 231.681 145.526 231.734 145.526C232.584 145.792 228.6 144.57 228.494 144.198C228.387 143.827 230.246 144.305 230.353 144.305C230.353 144.305 231.893 144.783 231.999 144.677C232.052 144.57 228.918 142.711 229.237 142.499C229.556 142.286 231.946 143.402 232.53 143.614C233.115 143.827 233.965 143.933 234.177 143.774C234.336 143.667 234.177 142.764 233.805 142.393C233.805 142.393 235.239 143.03 235.877 143.774C236.249 144.145 236.567 144.73 236.567 144.73L241.932 145.792L241.826 149.776Z" fill="#FF9C75"/>
<path d="M244.906 130.813C244.906 130.813 244.163 125.873 246.659 126.298C250.908 126.989 255.795 136.709 253.936 149.67C253.352 153.866 236.301 149.776 236.301 149.776L237.417 143.614L246.34 145.101L244.906 130.813Z" fill="white"/>
<path d="M272.208 127.786C272.208 128.636 272.899 129.326 273.749 129.326C274.599 129.326 275.289 128.636 275.289 127.786C275.289 126.936 274.599 126.245 273.749 126.245C272.899 126.245 272.208 126.936 272.208 127.786Z" fill="#4F6AFF"/>
<path d="M277.573 124.174C279.245 124.174 280.6 122.818 280.6 121.146C280.6 119.474 279.245 118.119 277.573 118.119C275.9 118.119 274.545 119.474 274.545 121.146C274.545 122.818 275.9 124.174 277.573 124.174Z" fill="#4F6AFF"/>
<path d="M275.13 122.952L273.483 122.368C273.324 122.315 273.324 122.102 273.483 122.049L277.095 120.934C277.255 120.881 277.361 121.04 277.308 121.146L276.086 124.758C276.033 124.917 275.82 124.917 275.767 124.758L275.236 123.058C275.183 123.005 275.183 123.005 275.13 122.952Z" fill="#1E274D"/>
<path d="M262.806 135.7C262.594 135.753 264.984 139.152 268.065 140.958C268.065 140.958 282.14 154.131 284.743 153.175C287.293 152.219 298.925 126.883 292.551 125.767C292.551 125.767 290.905 124.545 289.736 126.086C288.568 127.573 285.115 129.485 279.644 142.021C279.644 142.021 271.783 137.931 270.88 137.506C270.88 137.506 269.074 133.15 268.755 133.894C268.436 134.584 269.18 136.497 269.18 136.497C269.18 136.497 264.665 133.044 264.028 133.363C263.39 133.575 262.806 135.7 262.806 135.7Z" fill="#FEB38C"/>
<path d="M282.141 137.453C285.965 130.07 288.833 127.254 289.736 126.033C290.905 124.545 292.551 125.714 292.551 125.714C296.801 126.458 292.976 138.09 289.258 145.951C287.027 143.03 284.637 140.162 282.141 137.453Z" fill="#F5836B"/>
<path d="M285.222 127.52C285.222 127.52 287.665 120.615 292.499 123.483C297.332 126.405 293.88 140.587 291.224 143.508L280.547 137.665L285.222 127.52Z" fill="#4F6AFF"/>
<path d="M284.212 129.857C285.009 129.167 286.018 128.157 287.027 128.423C287.505 128.529 287.93 128.742 288.196 129.114C288.78 129.804 288.674 130.919 288.249 131.716C287.824 132.513 287.133 133.203 286.549 133.894C285.274 135.488 284.531 137.453 284.424 139.471" stroke="#FBEFDF" stroke-width="0.2024" stroke-miterlimit="10"/>
<path d="M291.118 143.402C292.87 143.083 295.686 132.035 294.623 130.07C294.623 130.07 289.312 126.936 288.993 127.254C285.54 130.866 291.118 143.402 291.118 143.402Z" fill="#3054F2"/>
<path d="M280.601 228.973C280.601 228.123 292.711 227.432 307.637 227.432C322.563 227.432 334.673 228.123 334.673 228.973C334.673 229.822 322.563 230.513 307.637 230.513C292.711 230.513 280.601 229.822 280.601 228.973Z" fill="#E5F1FF"/>
<path d="M284.796 224.458L284.902 219.305L289.842 219.677L289.736 224.617L287.399 228.654L283.256 225.414L284.796 224.458Z" fill="#FEB38C"/>
<path d="M285.275 219.411L289.099 227.538C289.099 227.538 288.356 226.263 289.843 224.935V219.464H285.275V219.411Z" fill="#F5836B"/>
<path d="M284 224.086C284 224.086 285.328 225.573 286.974 226.848C287.984 227.592 289.471 224.351 289.949 223.98C290.055 223.873 290.161 223.98 290.214 224.139L290.799 229.451H276.139C275.979 229.451 275.767 229.291 275.82 229.026C276.563 225.042 284 224.086 284 224.086Z" fill="#18004C"/>
<path d="M282.247 228.496C282.247 228.496 281.663 225.787 279.751 225.256C279.751 225.256 276.723 226.265 275.979 228.549H290.64" stroke="white" stroke-width="0.4048" stroke-miterlimit="10"/>
<path d="M290.321 225.201L287.293 228.547" stroke="white" stroke-width="0.4048" stroke-miterlimit="10"/>
<path d="M308.328 225.095L306.84 220.155L312.152 219.943L313.321 225.201L311.302 228.654L307.159 225.414L308.328 225.095Z" fill="#FEB38C"/>
<path d="M307.956 220.155L312.364 226.264C312.364 226.264 312.311 226.476 313.798 225.095L312.099 219.943L307.956 220.155Z" fill="#F5836B"/>
<path d="M307.637 224.723C307.637 224.723 308.965 226.21 310.612 227.485C311.621 228.229 313.108 224.989 313.586 224.617C313.692 224.511 313.798 224.617 313.852 224.776L314.436 230.088H299.776C299.616 230.088 299.404 229.928 299.457 229.663C300.201 225.732 307.637 224.723 307.637 224.723Z" fill="#18004C"/>
<path d="M305.831 229.134C305.831 229.134 305.247 226.425 303.335 225.894C303.335 225.894 300.307 226.903 299.563 229.187H314.224" stroke="white" stroke-width="0.4048" stroke-miterlimit="10"/>
<path d="M313.958 225.839L310.877 229.185" stroke="white" stroke-width="0.4048" stroke-miterlimit="10"/>
<path d="M284.797 160.346C284.797 160.346 282.885 182.92 282.726 189.188C282.566 195.403 284.16 219.783 284.16 219.783H290.481C290.481 219.783 297.173 176.706 304.769 161.674L284.797 160.346Z" fill="#0C3360"/>
<path d="M287.399 215.906L288.356 187.329L292.817 170.597" stroke="white" stroke-width="0.3264" stroke-miterlimit="10"/>
<path d="M291.224 219.942L283.947 219.783L283.522 215.64H291.967L291.224 219.942Z" fill="#4F6AFF"/>
<path d="M284.744 160.346C284.744 160.346 289.099 179.149 293.561 192.481C297.12 203.264 306.628 220.261 306.628 220.261L312.948 219.996L306.203 192.853C305.778 191.26 305.512 189.613 305.459 187.966C305.087 181.699 306.362 169.057 306.893 160.983L284.744 160.346Z" fill="#133C6B"/>
<path d="M309.549 216.065C309.708 215.64 300.838 189.879 300.838 186.585C300.838 183.292 300.997 171.978 300.997 171.978" stroke="white" stroke-width="0.3264" stroke-miterlimit="10"/>
<path d="M313.692 219.943L306.628 220.261L304.237 216.331L313.108 215.906L313.692 219.943Z" fill="#4F6AFF"/>
<path d="M301.847 121.093C301.847 121.093 311.727 122.102 312.311 130.282C312.948 138.462 308.805 172.297 308.805 172.297L281.928 170.598L284.478 132.194C284.584 130.123 285.221 128.104 286.337 126.352C287.346 124.758 288.568 122.899 289.258 122.846L300.307 119.978L301.847 121.093Z" fill="#4F6AFF"/>
<path d="M304.078 121.996C310.665 123.005 311.993 126.192 312.258 130.282C312.896 138.462 308.753 172.032 308.753 172.032L282.248 170.598" fill="#3054F2"/>
<path d="M299.245 122.687C298.607 124.758 297.758 126.83 296.801 128.795C295.474 131.451 293.668 134.107 290.852 135.01C289.631 135.381 288.356 135.434 287.134 135.753C285.913 136.072 284.638 136.762 284.213 137.931" stroke="#FBEFDF" stroke-width="0.2024" stroke-miterlimit="10"/>
<path d="M311.78 156.203C309.23 155.884 306.202 155.778 304.715 157.903C303.547 159.549 303.971 161.833 303.015 163.639C301.794 165.976 298.872 166.561 296.535 167.836C293.189 169.641 290.905 173.253 290.692 177.025" stroke="#FBEFDF" stroke-width="0.2024" stroke-miterlimit="10"/>
<path d="M283.575 170.013C287.772 168.42 292.021 165.711 293.508 161.461C293.614 161.196 293.668 160.93 293.614 160.665C293.561 160.399 293.296 160.24 293.083 160.08C291.702 159.124 289.949 158.912 288.621 157.903C288.09 157.478 287.665 157 287.134 156.575C285.381 155.194 282.672 155.247 280.973 156.681" stroke="#FBEFDF" stroke-width="0.2024" stroke-miterlimit="10"/>
<path d="M283.575 140.003C285.859 140.268 287.984 141.808 288.94 143.88C290.48 147.226 289.152 151.476 291.011 154.716C292.817 157.797 297.598 158.593 300.254 156.15C301.316 155.141 302.06 153.76 303.388 153.069C305.725 151.794 309.23 153.175 310.983 151.157" stroke="#FBEFDF" stroke-width="0.2024" stroke-miterlimit="10"/>
<path d="M298.714 113.71L301.582 121.412L299.457 122.474C296.164 123.696 293.189 122.899 292.711 121.571L293.136 117.003L297.757 112.807C297.757 112.807 298.448 113.338 298.554 113.497C298.66 113.657 298.714 113.71 298.714 113.71Z" fill="#FEB38C"/>
<path d="M297.81 112.807L293.189 117.003L293.03 118.65C293.03 118.65 296.907 119.553 298.341 113.444" fill="#F5836B"/>
<path d="M289.683 152.007L280.653 135.647C280.175 134.744 279.325 134.16 278.369 133.947L257.919 132.566C257.548 132.513 257.282 132.885 257.494 133.203L266.152 148.713C266.631 149.563 267.374 150.148 268.33 150.36L289.258 152.644C289.577 152.75 289.896 152.325 289.683 152.007Z" fill="#E5F1FF"/>
<path d="M288.993 153.175L280.813 137.506C280.335 136.603 278.954 135.806 277.998 135.594L256.326 134.213C255.954 134.159 255.689 134.531 255.901 134.85L264.559 150.36C265.037 151.21 265.781 151.794 266.737 152.007L288.515 153.759C288.887 153.919 289.152 153.494 288.993 153.175Z" fill="#18004C"/>
<path d="M284.106 141.861L279.963 143.349L285.487 144.411L284.106 141.861Z" fill="#000F30"/>
<path d="M284.903 149.776L265.516 148.713L266.578 150.732L286.231 151.953L284.903 149.776Z" fill="#FCFAF5"/>
<path d="M284.265 148.235C284.956 148.66 293.083 155.672 299.616 158.859C301.422 159.762 303.759 157.69 304.397 155.831L310.452 139.896L300.625 134.903C300.572 135.009 298.873 144.889 297.438 148.342C296.907 149.563 297.226 149.404 296.11 148.979L287.24 144.464C287.24 144.464 286.496 143.774 286.231 143.296C285.7 142.393 283.894 141.383 283.894 141.383L284.956 143.349C285.168 143.667 284.903 143.774 284.265 143.455L279.857 141.596C279.857 141.596 278.848 141.383 279.379 141.808C279.91 142.233 281.663 143.296 281.716 143.349C282.831 143.933 278.794 142.074 278.848 142.446C278.848 142.818 281.185 144.146 281.132 144.199C281.079 144.252 278.635 143.083 278.582 143.455C278.582 143.827 280.76 144.889 280.866 144.889C281.025 144.889 279.113 143.88 279.06 144.092C279.06 144.252 283.894 148.023 284.265 148.235Z" fill="#FEB38C"/>
<path d="M299.245 141.755C299.988 138.303 300.573 135.009 300.626 134.956L310.452 139.949L306.628 150.041C304.238 147.226 301.794 144.464 299.245 141.755Z" fill="#F5836B"/>
<path d="M300.36 156.415C301.263 155.831 303.441 155.141 304.238 156.256C303.441 158.009 301.263 159.709 299.617 158.912C299.351 158.806 299.086 158.646 298.873 158.54C299.086 157.69 299.51 156.946 300.36 156.415Z" fill="#F5836B"/>
<path d="M301.582 127.786C301.582 127.786 302.697 120.456 307.956 122.421C313.214 124.386 313.108 146.323 311.036 149.723L295.951 142.446L301.582 127.786Z" fill="#4F6AFF"/>
<path d="M303.228 122.58C302.75 126.67 303.281 130.972 305.459 134.478C307.636 137.984 311.673 140.427 315.763 140.002" stroke="#FBEFDF" stroke-width="0.2024" stroke-miterlimit="10"/>
<path d="M300.307 132.725C301.263 133.203 302.059 133.841 302.803 134.584C303.069 134.85 303.281 135.169 303.387 135.541C303.653 136.656 302.272 137.506 302.059 138.674C301.9 139.471 302.378 140.215 302.909 140.799C303.494 141.383 304.131 141.808 304.662 142.393C305.99 143.933 305.884 146.536 304.397 147.97" stroke="#FBEFDF" stroke-width="0.2024" stroke-miterlimit="10"/>
<path d="M312.205 144.464C311.568 143.986 310.612 143.933 309.974 144.411C308.806 145.208 308.912 146.907 308.381 148.235" stroke="#FBEFDF" stroke-width="0.2024" stroke-miterlimit="10"/>
<path d="M289.684 105.742C289.577 107.23 290.852 106.645 290.852 106.645C294.039 108.717 298.129 112.276 298.129 112.276C298.129 112.276 299.616 112.01 299.616 111.638C299.669 108.77 299.51 105.317 299.51 105.317C299.51 105.317 300.413 104.68 300.307 103.671C300.307 103.671 299.988 102.449 298.979 102.662C298.979 102.662 299.191 101.918 298.66 101.546C298.129 101.174 297.651 101.652 297.651 101.652C297.651 101.652 297.598 100.271 296.164 99.9526C294.73 99.6339 294.145 100.962 294.145 100.962C294.145 100.962 293.88 100.218 293.455 100.271C293.03 100.324 292.871 101.015 292.871 101.015C292.871 101.015 292.764 99.8995 291.49 100.059C290.215 100.218 290.109 101.759 290.109 101.759C290.109 101.759 290.055 101.28 289.471 101.387C288.674 101.493 288.249 102.449 288.993 103.352C288.993 103.352 288.409 103.724 288.462 104.574C288.515 105.317 289.684 105.742 289.684 105.742Z" fill="#7A8C9B"/>
<path d="M298.235 111.266C298.288 111.426 298.448 111.479 298.607 111.373C298.979 111.001 299.723 110.523 299.988 111.957C300.36 113.975 298.288 113.604 298.129 113.869C297.81 114.4 296.695 116.259 295.101 116.95C294.145 117.375 292.658 117.428 291.596 116.419C290.533 115.41 289.949 116.578 290.374 105.636C290.374 105.636 290.64 106.539 291.702 106.327C292.446 106.167 293.03 105.583 293.827 105.317C294.464 105.158 296.27 104.68 297.067 106.964C297.332 107.973 297.917 110.363 298.235 111.266Z" fill="#FEB38C"/>
<path d="M299.669 111.798L298.554 112.648C298.554 112.594 298.979 110.576 299.669 111.798Z" fill="#F5836B"/>
</svg>
